<svg width="50" height="50" viewBox="0 0 50 50" fill="none" xmlns="http://www.w3.org/2000/svg">
<rect x="3.125" y="3.125" width="43.75" height="43.75" rx="21.875" fill="white"/>
<path d="M35.9375 16.4062C35.9375 17.7007 34.8882 18.75 33.5938 18.75C32.2993 18.75 31.25 17.7007 31.25 16.4062C31.25 15.1118 32.2993 14.0625 33.5938 14.0625C34.8882 14.0625 35.9375 15.1118 35.9375 16.4062Z" fill="#FFA500"/>
<path fill-rule="evenodd" clip-rule="evenodd" d="M25 32.8125C29.3147 32.8125 32.8125 29.3147 32.8125 25C32.8125 20.6853 29.3147 17.1875 25 17.1875C20.6853 17.1875 17.1875 20.6853 17.1875 25C17.1875 29.3147 20.6853 32.8125 25 32.8125ZM25 29.6875C27.5888 29.6875 29.6875 27.5888 29.6875 25C29.6875 22.4112 27.5888 20.3125 25 20.3125C22.4112 20.3125 20.3125 22.4112 20.3125 25C20.3125 27.5888 22.4112 29.6875 25 29.6875Z" fill="#FFA500"/>
<path fill-rule="evenodd" clip-rule="evenodd" d="M9.375 24.375C9.375 19.1245 9.375 16.4993 10.3968 14.4938C11.2956 12.7298 12.7298 11.2956 14.4938 10.3968C16.4993 9.375 19.1245 9.375 24.375 9.375H25.625C30.8755 9.375 33.5007 9.375 35.5062 10.3968C37.2702 11.2956 38.7044 12.7298 39.6032 14.4938C40.625 16.4993 40.625 19.1245 40.625 24.375V25.625C40.625 30.8755 40.625 33.5007 39.6032 35.5062C38.7044 37.2702 37.2702 38.7044 35.5062 39.6032C33.5007 40.625 30.8755 40.625 25.625 40.625H24.375C19.1245 40.625 16.4993 40.625 14.4938 39.6032C12.7298 38.7044 11.2956 37.2702 10.3968 35.5062C9.375 33.5007 9.375 30.8755 9.375 25.625V24.375ZM24.375 12.5H25.625C28.3018 12.5 30.1215 12.5024 31.528 12.6173C32.8981 12.7293 33.5987 12.9322 34.0874 13.1812C35.2635 13.7804 36.2196 14.7365 36.8188 15.9126C37.0678 16.4013 37.2707 17.1019 37.3827 18.472C37.4976 19.8785 37.5 21.6982 37.5 24.375V25.625C37.5 28.3018 37.4976 30.1215 37.3827 31.528C37.2707 32.8981 37.0678 33.5987 36.8188 34.0874C36.2196 35.2635 35.2635 36.2196 34.0874 36.8188C33.5987 37.0678 32.8981 37.2707 31.528 37.3827C30.1215 37.4976 28.3018 37.5 25.625 37.5H24.375C21.6982 37.5 19.8785 37.4976 18.472 37.3827C17.1019 37.2707 16.4013 37.0678 15.9126 36.8188C14.7365 36.2196 13.7804 35.2635 13.1812 34.0874C12.9322 33.5987 12.7293 32.8981 12.6173 31.528C12.5024 30.1215 12.5 28.3018 12.5 25.625V24.375C12.5 21.6982 12.5024 19.8785 12.6173 18.472C12.7293 17.1019 12.9322 16.4013 13.1812 15.9126C13.7804 14.7365 14.7365 13.7804 15.9126 13.1812C16.4013 12.9322 17.1019 12.7293 18.472 12.6173C19.8785 12.5024 21.6982 12.5 24.375 12.5Z" fill="#FFA500"/>
</svg>
