<svg width="50" height="50" viewBox="0 0 50 50" fill="none" xmlns="http://www.w3.org/2000/svg">
<path d="M33.6035 22.8125C30.7812 22.8125 30.3906 25.625 30.3906 25.625H36.3867C36.3867 25.625 36.4258 22.8125 33.6035 22.8125ZM20 25.625H14.6875V30.5078H19.7363C20.498 30.4883 21.9238 30.2734 21.9238 28.1348C21.9238 25.5957 20 25.625 20 25.625Z" fill="white"/>
<path d="M25 3.125C12.9199 3.125 3.125 12.9199 3.125 25C3.125 37.0801 12.9199 46.875 25 46.875C37.0801 46.875 46.875 37.0801 46.875 25C46.875 12.9199 37.0801 3.125 25 3.125ZM29.6094 16.5625H37.1387V18.8086H29.6094V16.5625ZM25.8008 28.3594C25.8008 33.9258 20 33.75 20 33.75H10.5078V15.4883H20C22.8906 15.4883 25.166 17.0801 25.166 20.3516C25.166 23.623 22.3828 23.8281 22.3828 23.8281C26.0547 23.8281 25.8008 28.3594 25.8008 28.3594ZM39.8828 28.0566H30.4199C30.4199 31.4453 33.6328 31.2305 33.6328 31.2305C36.6699 31.2305 36.5625 29.2676 36.5625 29.2676H39.7754C39.7754 34.4824 33.5254 34.1211 33.5254 34.1211C26.0352 34.1211 26.5137 27.1387 26.5137 27.1387C26.5137 27.1387 26.5039 20.127 33.5254 20.127C40.918 20.1367 39.8828 28.0566 39.8828 28.0566Z" fill="white"/>
<path d="M21.2891 20.6348C21.2891 18.7402 20 18.7402 20 18.7402H14.6875V22.8125H19.668C20.5273 22.8125 21.2891 22.5293 21.2891 20.6348Z" fill="white"/>
</svg>
