<svg width="50" height="50" viewBox="0 0 50 50" fill="none" xmlns="http://www.w3.org/2000/svg">
<rect x="3.125" y="3.125" width="43.75" height="43.75" rx="21.875" fill="white"/>
<path d="M19.7165 15.144C19.7165 16.6042 18.4508 17.788 16.8895 17.788C15.3282 17.788 14.0625 16.6042 14.0625 15.144C14.0625 13.6838 15.3282 12.5 16.8895 12.5C18.4508 12.5 19.7165 13.6838 19.7165 15.144Z" fill="#FFA500"/>
<path d="M14.4491 19.7314H19.2816V34.375H14.4491V19.7314Z" fill="#FFA500"/>
<path d="M27.0619 19.7314H22.2294V34.375H27.0619C27.0619 34.375 27.0619 29.765 27.0619 26.8826C27.0619 25.1525 27.6526 23.4149 30.0097 23.4149C32.6735 23.4149 32.6574 25.679 32.645 27.433C32.6288 29.7257 32.6675 32.0654 32.6675 34.375H37.5V26.6464C37.4591 21.7115 36.1732 19.4376 31.9427 19.4376C29.4303 19.4376 27.873 20.5782 27.0619 21.6101V19.7314Z" fill="#FFA500"/>
</svg>
