<svg width="46" height="46" viewBox="0 0 46 46" fill="none" xmlns="http://www.w3.org/2000/svg">
<g clip-path="url(#clip0_329_40)">
<path d="M42.2857 6.92847H3.71432C2.82672 6.92847 2.10718 7.64802 2.10718 8.53561V34.2499C2.10718 35.1374 2.82672 35.857 3.71432 35.857H42.2857C43.1732 35.857 43.8929 35.1374 43.8929 34.2499V8.53561C43.8929 7.64802 43.1732 6.92847 42.2857 6.92847Z" stroke="white" stroke-width="3" stroke-linecap="round" stroke-linejoin="round"/>
<path d="M19.7857 35.8569L16.5714 43.8926" stroke="white" stroke-width="3" stroke-linecap="round" stroke-linejoin="round"/>
<path d="M26.2144 35.8569L29.4286 43.8926" stroke="white" stroke-width="3" stroke-linecap="round" stroke-linejoin="round"/>
<path d="M13.3572 43.8928H32.6429" stroke="white" stroke-width="3" stroke-linecap="round" stroke-linejoin="round"/>
<path d="M14.9644 17.375L9.33936 22.1964L14.1608 26.2143" stroke="white" stroke-width="3" stroke-linecap="round" stroke-linejoin="round"/>
<path d="M31.8393 18.1785L36.6608 22.1963L31.0358 27.0178" stroke="white" stroke-width="3" stroke-linecap="round" stroke-linejoin="round"/>
<path d="M20.5894 28.6249L25.4108 14.1606" stroke="white" stroke-width="3" stroke-linecap="round" stroke-linejoin="round"/>
</g>
<defs>
<clipPath id="clip0_329_40">
<rect width="45" height="45" fill="white" transform="translate(0.5 0.5)"/>
</clipPath>
</defs>
</svg>
