<svg width="46" height="45" viewBox="0 0 46 45" fill="none" xmlns="http://www.w3.org/2000/svg">
<path d="M20.1875 30.8616C19.2125 30.7535 18.2535 30.5317 17.33 30.2007C17.3581 29.537 17.375 28.8451 17.375 28.1251V27.1773C18.2469 27.5935 19.1947 27.8832 20.1875 28.0266V21.0938C20.1875 19.975 20.632 18.9019 21.4231 18.1107C22.2143 17.3196 23.2874 16.8751 24.4062 16.8751H31.3391C31.1148 15.3166 30.5199 13.8347 29.6044 12.5537C28.6889 11.2727 27.4795 10.2301 26.0777 9.51316C24.6759 8.79626 23.1225 8.42609 21.5481 8.43371C19.9736 8.44134 18.4239 8.82653 17.0291 9.55696C16.8066 8.63708 16.4402 7.75812 15.9434 6.95258C17.7667 6.04253 19.7827 5.58618 21.8202 5.62233C23.8576 5.65848 25.8562 6.18606 27.646 7.16022C29.4359 8.13438 30.964 9.52632 32.1005 11.2177C33.2371 12.9091 33.9484 14.8499 34.1741 16.8751H38.4688C39.5876 16.8751 40.6607 17.3196 41.4519 18.1107C42.243 18.9019 42.6875 19.975 42.6875 21.0938V35.1563C42.6875 36.2752 42.243 37.3483 41.4519 38.1394C40.6607 38.9306 39.5876 39.3751 38.4688 39.3751H24.4062C23.2874 39.3751 22.2143 38.9306 21.4231 38.1394C20.632 37.3483 20.1875 36.2752 20.1875 35.1563V30.8616ZM34.1741 19.6876C33.8545 22.5411 32.5745 25.2013 30.5441 27.2317C28.5138 29.2621 25.8536 30.5421 23 30.8616V35.1563C23 35.5293 23.1482 35.887 23.4119 36.1507C23.6756 36.4144 24.0333 36.5626 24.4062 36.5626H38.4688C38.8417 36.5626 39.1994 36.4144 39.4631 36.1507C39.7268 35.887 39.875 35.5293 39.875 35.1563V21.0938C39.875 20.7209 39.7268 20.3632 39.4631 20.0995C39.1994 19.8357 38.8417 19.6876 38.4688 19.6876H34.1741ZM31.3391 19.6876H24.4062C24.0333 19.6876 23.6756 19.8357 23.4119 20.0995C23.1482 20.3632 23 20.7209 23 21.0938V28.0266C25.1037 27.7226 27.0526 26.7461 28.5556 25.2431C30.0585 23.7401 31.035 21.7913 31.3391 19.6876ZM13.9859 21.2654C13.6906 20.1798 13.2125 19.0913 12.3913 18.256C13.7188 16.9988 14.5625 14.9963 14.5625 12.6563C14.5625 10.696 14.1659 9.34883 13.4488 8.27165C13.1305 7.80835 12.7627 7.38114 12.3519 6.99758C12.1944 6.84556 12.035 6.69555 11.8738 6.54758C11.7022 6.38727 11.5447 6.24102 11.3394 6.03571C10.9175 5.61383 10.8697 5.27633 10.8697 5.09915C10.8702 5.00066 10.8863 4.90287 10.9175 4.80946C11.0461 4.53137 11.0803 4.2189 11.0151 3.91957C10.9498 3.62023 10.7885 3.3504 10.5558 3.15112C10.3231 2.95184 10.0317 2.83401 9.72585 2.81555C9.42004 2.79708 9.11655 2.879 8.86156 3.04883L8.85594 3.05165L8.8475 3.05727L8.82219 3.07415L8.73781 3.1304C8.31594 3.43131 7.90948 3.75328 7.52 4.09508C6.81688 4.71665 5.9 5.63633 5.25031 6.73321C4.68317 7.64257 4.228 8.61714 3.89469 9.63571C3.55719 10.6454 3.3125 11.7395 3.3125 12.6563C3.3125 14.9963 4.15625 16.996 5.48375 18.2588C4.6625 19.0913 4.18438 20.1798 3.88906 21.2682C3.3125 23.3832 3.3125 25.9988 3.3125 28.021V28.1251C3.3125 33.9132 4.39531 37.3501 5.62156 39.3948C6.2375 40.4185 6.87875 41.0795 7.41594 41.4957C7.70217 41.719 8.01369 41.9078 8.34406 42.0582C8.53512 42.128 8.73475 42.1715 8.9375 42.1876C9.17375 42.1876 9.53094 42.0582 9.53094 42.0582C9.86131 41.9078 10.1728 41.719 10.4591 41.4957C10.9934 41.0795 11.6403 40.4185 12.2534 39.3948C13.4797 37.3529 14.5625 33.9132 14.5625 28.1251V28.0238C14.5625 25.9988 14.5625 23.386 13.9859 21.2654ZM7.49469 20.2248C7.8125 19.9041 8.23719 19.6876 8.9375 19.6876C9.64062 19.6876 10.0625 19.907 10.3803 20.222C10.7347 20.5791 11.0412 21.1585 11.2719 22.0051C11.7387 23.7235 11.75 25.9791 11.75 28.1251C11.75 33.587 10.7234 36.4782 9.84031 37.9491C9.50281 38.5116 9.185 38.8745 8.9375 39.1023C8.58387 38.7622 8.27994 38.374 8.03469 37.9491C7.15156 36.4754 6.125 33.587 6.125 28.1251C6.125 25.9791 6.13625 23.7235 6.60313 22.0051C6.83375 21.1613 7.14031 20.582 7.49469 20.2248ZM8.9375 16.8751C7.85469 16.8751 6.125 15.6713 6.125 12.6563C6.125 12.1698 6.27125 11.3991 6.56375 10.5273C6.8303 9.70415 7.19778 8.91722 7.65781 8.18446C7.9025 7.77102 8.22031 7.36883 8.56344 7.0004C8.7575 7.34352 9.01344 7.68946 9.35094 8.02696C9.55625 8.23227 9.82344 8.47977 10.0512 8.69352L10.4 9.01977C10.6953 9.30665 10.9231 9.55696 11.1059 9.8354C11.4434 10.3388 11.75 11.101 11.75 12.6563C11.75 15.6713 10.0203 16.8751 8.9375 16.8751Z" fill="white"/>
</svg>
