<svg width="25" height="24" viewBox="0 0 25 24" fill="none" xmlns="http://www.w3.org/2000/svg">
<path d="M12.5 9.75V16.5M12.5 16.5L9.5 13.5M12.5 16.5L15.5 13.5M7.25 19.5C4.76472 19.5 2.75 17.4853 2.75 15C2.75 13.0071 4.04555 11.3167 5.8404 10.7252C5.78105 10.4092 5.75 10.0832 5.75 9.75C5.75 6.85051 8.10051 4.5 11 4.5C13.4312 4.5 15.4765 6.1526 16.0737 8.39575C16.3654 8.30113 16.6767 8.25 17 8.25C18.6569 8.25 20 9.59315 20 11.25C20 11.5981 19.9407 11.9324 19.8316 12.2433C21.2453 12.7805 22.25 14.1479 22.25 15.75C22.25 17.8211 20.5711 19.5 18.5 19.5H7.25Z" stroke="white" stroke-width="1.5" stroke-linecap="round" stroke-linejoin="round"/>
</svg>
