<svg width="46" height="45" viewBox="0 0 46 45" fill="none" xmlns="http://www.w3.org/2000/svg">
<path d="M6.9125 22.5C6.9125 20.175 7.41875 17.9625 8.3 15.9375L15.9875 36.975C13.2658 35.661 10.9703 33.6054 9.36487 31.0448C7.75947 28.4841 6.90943 25.5223 6.9125 22.5ZM33.8563 21.6937C33.8563 23.0625 33.3125 24.6562 32.6375 26.8875L31.025 32.25L25.2125 15L27.05 14.8125C27.9312 14.7 27.8187 13.425 26.9562 13.4812C26.9562 13.4812 24.35 13.6875 22.6625 13.6875L18.425 13.4812C17.5625 13.425 17.4688 14.7563 18.3125 14.8125L20.0187 15L22.5312 21.825L19.0062 32.3813L13.1375 15L14.9937 14.8125C15.8562 14.7 15.7438 13.425 14.8813 13.4812C14.8813 13.4812 12.275 13.6875 10.5875 13.6875L9.55625 13.6687C12.4437 9.3 17.375 6.4125 23 6.4125C27.1812 6.4125 31.0063 8.025 33.8563 10.6313H33.65C32.075 10.6313 30.95 12 30.95 13.4812C30.95 14.8125 31.7188 15.9375 32.525 17.25C33.1437 18.3187 33.8563 19.6875 33.8563 21.6937ZM23.2812 23.9062L28.2313 37.4437L28.3438 37.6688C26.675 38.2687 24.875 38.5875 23 38.5875C21.425 38.5875 19.9062 38.3625 18.4625 37.9312L23.2812 23.9062ZM37.1188 14.775C38.4151 17.1431 39.0923 19.8003 39.0875 22.5C39.0875 28.425 35.8625 33.6187 31.0812 36.3937L35.9938 22.2C36.9125 19.9125 37.2313 18.075 37.2313 16.4438L37.1188 14.775ZM23 3.75C25.4623 3.75 27.9005 4.23498 30.1753 5.17726C32.4502 6.11953 34.5172 7.50065 36.2583 9.24175C37.9994 10.9828 39.3805 13.0498 40.3227 15.3247C41.265 17.5995 41.75 20.0377 41.75 22.5C41.75 27.4728 39.7746 32.2419 36.2583 35.7583C32.7419 39.2746 27.9728 41.25 23 41.25C20.5377 41.25 18.0995 40.765 15.8247 39.8227C13.5498 38.8805 11.4828 37.4994 9.74175 35.7583C6.22544 32.2419 4.25 27.4728 4.25 22.5C4.25 17.5272 6.22544 12.7581 9.74175 9.24175C13.2581 5.72544 18.0272 3.75 23 3.75ZM23 40.3875C32.8625 40.3875 40.8875 32.3625 40.8875 22.5C40.8875 12.6375 32.8625 4.6125 23 4.6125C13.1375 4.6125 5.1125 12.6375 5.1125 22.5C5.1125 32.3625 13.1375 40.3875 23 40.3875Z" fill="white"/>
</svg>
