<svg width="85" height="85" viewBox="0 0 85 85" fill="none" xmlns="http://www.w3.org/2000/svg">
<path d="M12.9873 42.5C12.9863 48.0428 14.5461 53.4739 17.4881 58.1716C20.4301 62.8692 24.6354 66.6436 29.6225 69.0625L15.5409 30.4831C13.8528 34.2642 12.9826 38.3592 12.9873 42.5ZM43.0207 45.0819L34.163 70.8121C40.1082 72.5624 46.4535 72.3976 52.2998 70.341C52.2173 70.2117 52.1462 70.0754 52.0873 69.9337L43.0207 45.0819ZM62.4255 41.0089C62.3858 38.1227 61.5433 35.3046 59.9923 32.8702C58.4059 30.875 57.402 28.4799 57.0917 25.9498C57.0564 24.5978 57.5585 23.287 58.4879 22.3045C59.4173 21.322 60.6982 20.7479 62.05 20.7081C62.1811 20.7081 62.305 20.7258 62.429 20.7364C59.2782 17.85 55.538 15.6823 51.4671 14.3834C47.3962 13.0844 43.0918 12.6852 38.8514 13.2133C34.6111 13.7414 30.5361 15.1843 26.9081 17.442C23.2802 19.6998 20.186 22.7186 17.8394 26.2898C18.5336 26.311 19.1852 26.3252 19.7413 26.3252C22.8261 26.3252 27.6038 25.9498 27.6038 25.9498C27.917 25.941 28.2217 26.053 28.4547 26.2625C28.6878 26.472 28.8314 26.763 28.856 27.0754C28.8806 27.3878 28.7841 27.6977 28.5867 27.9411C28.3892 28.1844 28.1058 28.3426 27.795 28.3829C27.795 28.3829 26.1942 28.5671 24.4163 28.6627L35.1652 60.6298L41.6253 41.2569L37.0246 28.6627C35.4344 28.5671 33.9292 28.3794 33.9292 28.3794C33.6246 28.3326 33.349 28.1724 33.1575 27.931C32.966 27.6896 32.8727 27.3848 32.8965 27.0775C32.9202 26.7703 33.0592 26.4834 33.2855 26.2742C33.5118 26.0651 33.8088 25.9492 34.1169 25.9498C34.1169 25.9498 38.9902 26.3252 41.8909 26.3252C44.9757 26.3252 49.7569 25.9498 49.7569 25.9498C49.9167 25.9374 50.0773 25.9567 50.2296 26.0065C50.3819 26.0562 50.523 26.1355 50.6446 26.2397C50.7663 26.344 50.8663 26.4712 50.9388 26.6141C51.0113 26.757 51.055 26.9127 51.0673 27.0725C51.0797 27.2322 51.0604 27.3929 51.0106 27.5452C50.9609 27.6975 50.8816 27.8385 50.7774 27.9602C50.6731 28.0819 50.5459 28.1819 50.403 28.2544C50.2602 28.3269 50.1044 28.3706 49.9446 28.3829C49.9446 28.3829 48.3438 28.5671 46.5694 28.6627L57.2334 60.3889L60.2792 50.7379C61.4692 47.6212 62.1917 44.3381 62.4255 41.0089ZM68.5986 31.3791C68.5474 35.0159 67.7846 38.6074 66.3532 41.951L57.3396 68.0141C63.988 64.1468 68.8643 57.8371 70.9301 50.4283C72.996 43.0195 72.0882 35.097 68.4002 28.3475C68.5348 29.3498 68.5986 30.3662 68.5986 31.3791ZM42.5 7.08331C22.9394 7.08331 7.08337 22.9394 7.08337 42.5C7.08337 62.0606 22.9394 77.9166 42.5 77.9166C62.0607 77.9166 77.9167 62.0606 77.9167 42.5C77.9167 22.9394 62.0607 7.08331 42.5 7.08331ZM55.459 73.1779C50.3574 75.3365 44.7974 76.1862 39.284 75.65C33.7706 75.1137 28.4786 73.2085 23.8886 70.1073C18.5348 66.4938 14.3435 61.4056 11.8221 55.4589C9.66293 50.3575 8.81283 44.7974 9.3491 39.2839C9.88536 33.7703 11.791 28.4782 14.8927 23.8885C18.506 18.5354 23.5943 14.3451 29.5411 11.8256C34.6423 9.66654 40.2022 8.8162 45.7156 9.35183C51.229 9.88746 56.5212 11.7921 61.1115 14.8927C66.4652 18.5062 70.6566 23.5944 73.178 29.541C75.3372 34.6424 76.1872 40.2026 75.651 45.7161C75.1147 51.2296 73.2091 56.5217 70.1073 61.1114C66.4946 66.4659 61.4062 70.6574 55.459 73.1779Z" fill="white"/>
</svg>
