<svg width="85" height="85" viewBox="0 0 85 85" fill="none" xmlns="http://www.w3.org/2000/svg">
<path fill-rule="evenodd" clip-rule="evenodd" d="M77.0312 60.2083C77.0312 64.6701 75.2588 68.949 72.1039 72.1039C68.949 75.2588 64.6701 77.0312 60.2083 77.0312H24.7917C20.33 77.0312 16.051 75.2588 12.8961 72.1039C9.74116 68.949 7.96875 64.6701 7.96875 60.2083V24.7917C7.96875 20.33 9.74116 16.051 12.8961 12.8961C16.051 9.74116 20.33 7.96875 24.7917 7.96875H60.2083C64.6701 7.96875 68.949 9.74116 72.1039 12.8961C75.2588 16.051 77.0312 20.33 77.0312 24.7917V60.2083ZM23.6052 59.0396C22.9749 58.7249 22.4955 58.1727 22.2723 57.5046C22.0492 56.8364 22.1006 56.1069 22.4152 55.4767L28.9071 42.5L22.4152 29.5198C22.107 28.8903 22.0601 28.1645 22.2847 27.5005C22.5094 26.8366 22.9873 26.2884 23.6144 25.9753C24.2415 25.6622 24.9669 25.6097 25.6326 25.8291C26.2982 26.0486 26.8502 26.5222 27.1681 27.1469L31.8785 36.5606L36.5819 27.1433C36.897 26.5131 37.4496 26.0338 38.1181 25.8109C38.7866 25.5881 39.5163 25.64 40.1466 25.9551C40.7768 26.2702 41.2561 26.8228 41.479 27.4914C41.7018 28.1599 41.6499 28.8895 41.3348 29.5198L34.8465 42.5L41.3348 55.4767C41.4908 55.7887 41.5839 56.1285 41.6086 56.4765C41.6333 56.8246 41.5893 57.1741 41.479 57.5051C41.3686 57.8361 41.1942 58.1422 40.9655 58.4057C40.7369 58.6693 40.4586 58.8853 40.1466 59.0414C39.8345 59.1974 39.4947 59.2904 39.1467 59.3152C38.7986 59.3399 38.4491 59.2958 38.1181 59.1855C37.7871 59.0752 37.4811 58.9007 37.2175 58.6721C36.9539 58.4435 36.7379 58.1652 36.5819 57.8531L31.875 48.4394L27.1681 57.8531C26.8534 58.4834 26.3013 58.9628 25.6331 59.186C24.9649 59.4092 24.2355 59.3542 23.6052 59.0396ZM53.125 45.1562H57.5521V54.0104H53.125C51.9509 54.0104 50.8248 53.544 49.9946 52.7138C49.1643 51.8835 48.6979 50.7575 48.6979 49.5833C48.6979 48.4092 49.1643 47.2832 49.9946 46.4529C50.8248 45.6227 51.9509 45.1562 53.125 45.1562ZM53.125 59.3229C50.5419 59.3229 48.0646 58.2968 46.2381 56.4703C44.4115 54.6437 43.3854 52.1664 43.3854 49.5833C43.3854 47.0002 44.4115 44.5229 46.2381 42.6964C48.0646 40.8699 50.5419 39.8438 53.125 39.8438H57.5521V31.875C57.5521 31.1705 57.8319 30.4949 58.3301 29.9967C58.8282 29.4986 59.5039 29.2188 60.2083 29.2188C60.9128 29.2188 61.5884 29.4986 62.0866 29.9967C62.5847 30.4949 62.8646 31.1705 62.8646 31.875V54.5417C62.8646 55.8097 62.3608 57.0259 61.4642 57.9225C60.5675 58.8192 59.3514 59.3229 58.0833 59.3229H53.125Z" fill="white"/>
</svg>
