<svg width="85" height="85" viewBox="0 0 85 85" fill="none" xmlns="http://www.w3.org/2000/svg">
<path opacity="0.6" d="M41.3206 7.08331H29.5127C26.3815 7.08331 23.3786 8.32717 21.1645 10.5413C18.9504 12.7553 17.7065 15.7583 17.7065 18.8895C17.7065 22.0206 18.9504 25.0236 21.1645 27.2377C23.3786 29.4517 26.3815 30.6956 29.5127 30.6956H41.3206V7.08331Z" fill="white"/>
<path opacity="0.4" d="M41.3207 30.6957H29.5127C26.382 30.6957 23.3795 31.9394 21.1658 34.1531C18.952 36.3669 17.7084 39.3693 17.7084 42.5001C17.7084 45.6308 18.952 48.6333 21.1658 50.847C23.3795 53.0608 26.382 54.3044 29.5127 54.3044H41.3207V30.6957Z" fill="white"/>
<path d="M64.9294 42.5C64.9294 45.6312 63.6856 48.6341 61.4715 50.8482C59.2574 53.0623 56.2545 54.3061 53.1233 54.3061C49.9921 54.3061 46.9892 53.0623 44.7751 50.8482C42.561 48.6341 41.3171 45.6312 41.3171 42.5C41.3171 39.3688 42.561 36.3659 44.7751 34.1518C46.9892 31.9377 49.9921 30.6938 53.1233 30.6938C56.2545 30.6938 59.2574 31.9377 61.4715 34.1518C63.6856 36.3659 64.9294 39.3688 64.9294 42.5Z" fill="white"/>
<path opacity="0.2" d="M29.5128 54.3079H41.3207V66.1122C41.32 68.4466 40.6271 70.7284 39.3298 72.6691C38.0324 74.6097 36.1888 76.1222 34.032 77.0152C31.8752 77.9082 29.502 78.1417 27.2125 77.6861C24.923 77.2305 22.82 76.1063 21.1693 74.4557C19.5187 72.805 18.3945 70.702 17.9389 68.4125C17.4833 66.123 17.7168 63.7498 18.6098 61.593C19.5028 59.4362 21.0152 57.5925 22.9559 56.2952C24.8966 54.9978 27.1784 54.3086 29.5128 54.3079Z" fill="white"/>
<path opacity="0.8" d="M41.3171 7.08331H53.1215C56.2527 7.08331 59.2556 8.32717 61.4697 10.5413C63.6838 12.7553 64.9277 15.7583 64.9277 18.8895C64.9277 22.0206 63.6838 25.0236 61.4697 27.2377C59.2556 29.4517 56.2527 30.6956 53.1215 30.6956H41.3171V7.08331Z" fill="white"/>
</svg>
