<svg width="85" height="85" viewBox="0 0 85 85" fill="none" xmlns="http://www.w3.org/2000/svg">
<path d="M12.9872 42.5C12.9862 48.0428 14.546 53.4739 17.488 58.1716C20.43 62.8692 24.6352 66.6436 29.6224 69.0625L15.5408 30.4831C13.8527 34.2642 12.9825 38.3592 12.9872 42.5ZM43.0205 45.0819L34.1628 70.8121C40.1081 72.5624 46.4533 72.3976 52.2997 70.341C52.2172 70.2117 52.1461 70.0754 52.0872 69.9337L43.0205 45.0819ZM62.4253 41.0089C62.3857 38.1227 61.5432 35.3046 59.9922 32.8702C58.4057 30.875 57.4019 28.4799 57.0916 25.9498C57.0563 24.5978 57.5584 23.287 58.4878 22.3045C59.4172 21.322 60.6981 20.7479 62.0499 20.7081C62.181 20.7081 62.3049 20.7258 62.4289 20.7364C59.2781 17.85 55.5379 15.6823 51.467 14.3834C47.3961 13.0844 43.0917 12.6852 38.8513 13.2133C34.611 13.7414 30.5359 15.1843 26.908 17.442C23.2801 19.6998 20.1859 22.7186 17.8393 26.2898C18.5335 26.311 19.1851 26.3252 19.7412 26.3252C22.826 26.3252 27.6037 25.9498 27.6037 25.9498C27.9169 25.941 28.2216 26.053 28.4546 26.2625C28.6877 26.472 28.8313 26.763 28.8559 27.0754C28.8804 27.3878 28.784 27.6977 28.5866 27.9411C28.3891 28.1844 28.1057 28.3426 27.7949 28.3829C27.7949 28.3829 26.1941 28.5671 24.4162 28.6627L35.1651 60.6298L41.6251 41.2569L37.0245 28.6627C35.4343 28.5671 33.9291 28.3794 33.9291 28.3794C33.6245 28.3326 33.3489 28.1724 33.1573 27.931C32.9658 27.6896 32.8726 27.3848 32.8964 27.0775C32.9201 26.7703 33.059 26.4834 33.2853 26.2742C33.5117 26.0651 33.8086 25.9492 34.1168 25.9498C34.1168 25.9498 38.9901 26.3252 41.8908 26.3252C44.9755 26.3252 49.7568 25.9498 49.7568 25.9498C49.9166 25.9374 50.0772 25.9567 50.2295 26.0065C50.3818 26.0562 50.5228 26.1355 50.6445 26.2397C50.7662 26.344 50.8662 26.4712 50.9387 26.6141C51.0112 26.757 51.0549 26.9127 51.0672 27.0725C51.0795 27.2322 51.0603 27.3929 51.0105 27.5452C50.9608 27.6975 50.8815 27.8385 50.7773 27.9602C50.673 28.0819 50.5458 28.1819 50.4029 28.2544C50.26 28.3269 50.1043 28.3706 49.9445 28.3829C49.9445 28.3829 48.3437 28.5671 46.5693 28.6627L57.2333 60.3889L60.2791 50.7379C61.4691 47.6212 62.1916 44.3381 62.4253 41.0089ZM68.5985 31.3791C68.5473 35.0159 67.7845 38.6074 66.353 41.951L57.3395 68.0141C63.9879 64.1468 68.8641 57.8371 70.93 50.4283C72.9958 43.0195 72.0881 35.097 68.4001 28.3475C68.5347 29.3498 68.5985 30.3662 68.5985 31.3791ZM42.4999 7.08331C22.9393 7.08331 7.08325 22.9394 7.08325 42.5C7.08325 62.0606 22.9393 77.9166 42.4999 77.9166C62.0605 77.9166 77.9166 62.0606 77.9166 42.5C77.9166 22.9394 62.0605 7.08331 42.4999 7.08331ZM55.4589 73.1779C50.3573 75.3365 44.7973 76.1862 39.2839 75.65C33.7705 75.1137 28.4784 73.2085 23.8885 70.1073C18.5347 66.4938 14.3434 61.4056 11.822 55.4589C9.66281 50.3575 8.81271 44.7974 9.34897 39.2839C9.88523 33.7703 11.7908 28.4782 14.8926 23.8885C18.5059 18.5354 23.5942 14.3451 29.541 11.8256C34.6422 9.66654 40.2021 8.8162 45.7155 9.35183C51.2289 9.88746 56.5211 11.7921 61.1114 14.8927C66.4651 18.5062 70.6565 23.5944 73.1778 29.541C75.337 34.6424 76.1871 40.2026 75.6509 45.7161C75.1146 51.2296 73.209 56.5217 70.1072 61.1114C66.4944 66.4659 61.4061 70.6574 55.4589 73.1779Z" fill="white"/>
</svg>
